<?xml version="1.0" encoding="utf-8" standalone="no"?>
<!DOCTYPE svg PUBLIC "-//W3C//DTD SVG 1.1//EN"
  "http://www.w3.org/Graphics/SVG/1.1/DTD/svg11.dtd">
<svg xmlns:xlink="http://www.w3.org/1999/xlink" width="864pt" height="576pt" viewBox="0 0 864 576" xmlns="http://www.w3.org/2000/svg" version="1.1">
 <metadata>
  <rdf:RDF xmlns:dc="http://purl.org/dc/elements/1.1/" xmlns:cc="http://creativecommons.org/ns#" xmlns:rdf="http://www.w3.org/1999/02/22-rdf-syntax-ns#">
   <cc:Work>
    <dc:type rdf:resource="http://purl.org/dc/dcmitype/StillImage"/>
    <dc:date>2026-06-11T00:30:43.496861</dc:date>
    <dc:format>image/svg+xml</dc:format>
    <dc:creator>
     <cc:Agent>
      <dc:title>Matplotlib v3.10.9, https://matplotlib.org/</dc:title>
     </cc:Agent>
    </dc:creator>
   </cc:Work>
  </rdf:RDF>
 </metadata>
 <defs>
  <style type="text/css">*{stroke-linejoin: round; stroke-linecap: butt}</style>
 </defs>
 <g id="figure_1">
  <g id="patch_1">
   <path d="M 0 576 
L 864 576 
L 864 0 
L 0 0 
z
" style="fill: #0b1120"/>
  </g>
  <g id="axes_1">
   <g id="patch_2">
    <path d="M 162.97 529.72 
L 853.2 529.72 
L 853.2 55.0365 
L 162.97 55.0365 
z
" style="fill: #0b1120"/>
   </g>
   <g id="patch_3">
    <path d="M 162.97 508.143477 
L 394.980084 508.143477 
L 394.980084 490.409349 
L 162.97 490.409349 
z
" clip-path="url(#p7de7209c6b)" style="fill: #50c878; opacity: 0.8"/>
   </g>
   <g id="patch_4">
    <path d="M 162.97 478.586597 
L 404.647171 478.586597 
L 404.647171 460.852469 
L 162.97 460.852469 
z
" clip-path="url(#p7de7209c6b)" style="fill: #50c878; opacity: 0.8"/>
   </g>
   <g id="patch_5">
    <path d="M 162.97 449.029716 
L 404.647171 449.029716 
L 404.647171 431.295588 
L 162.97 431.295588 
z
" clip-path="url(#p7de7209c6b)" style="fill: #50c878; opacity: 0.8"/>
   </g>
   <g id="patch_6">
    <path d="M 162.97 419.472836 
L 404.647171 419.472836 
L 404.647171 401.738708 
L 162.97 401.738708 
z
" clip-path="url(#p7de7209c6b)" style="fill: #50c878; opacity: 0.8"/>
   </g>
   <g id="patch_7">
    <path d="M 162.97 389.915955 
L 414.314258 389.915955 
L 414.314258 372.181827 
L 162.97 372.181827 
z
" clip-path="url(#p7de7209c6b)" style="fill: #50c878; opacity: 0.8"/>
   </g>
   <g id="patch_8">
    <path d="M 162.97 360.359075 
L 423.981345 360.359075 
L 423.981345 342.624947 
L 162.97 342.624947 
z
" clip-path="url(#p7de7209c6b)" style="fill: #50c878; opacity: 0.8"/>
   </g>
   <g id="patch_9">
    <path d="M 162.97 330.802195 
L 433.648431 330.802195 
L 433.648431 313.068066 
L 162.97 313.068066 
z
" clip-path="url(#p7de7209c6b)" style="fill: #50c878; opacity: 0.8"/>
   </g>
   <g id="patch_10">
    <path d="M 162.97 301.245314 
L 452.982605 301.245314 
L 452.982605 283.511186 
L 162.97 283.511186 
z
" clip-path="url(#p7de7209c6b)" style="fill: #50c878; opacity: 0.8"/>
   </g>
   <g id="patch_11">
    <path d="M 162.97 271.688434 
L 452.982605 271.688434 
L 452.982605 253.954305 
L 162.97 253.954305 
z
" clip-path="url(#p7de7209c6b)" style="fill: #50c878; opacity: 0.8"/>
   </g>
   <g id="patch_12">
    <path d="M 162.97 242.131553 
L 462.649692 242.131553 
L 462.649692 224.397425 
L 162.97 224.397425 
z
" clip-path="url(#p7de7209c6b)" style="fill: #50c878; opacity: 0.8"/>
   </g>
   <g id="patch_13">
    <path d="M 162.97 212.574673 
L 481.983866 212.574673 
L 481.983866 194.840545 
L 162.97 194.840545 
z
" clip-path="url(#p7de7209c6b)" style="fill: #50c878; opacity: 0.8"/>
   </g>
   <g id="patch_14">
    <path d="M 162.97 183.017792 
L 501.318039 183.017792 
L 501.318039 165.283664 
L 162.97 165.283664 
z
" clip-path="url(#p7de7209c6b)" style="fill: #50c878; opacity: 0.8"/>
   </g>
   <g id="patch_15">
    <path d="M 162.97 153.460912 
L 510.985126 153.460912 
L 510.985126 135.726784 
L 162.97 135.726784 
z
" clip-path="url(#p7de7209c6b)" style="fill: #50c878; opacity: 0.8"/>
   </g>
   <g id="patch_16">
    <path d="M 162.97 123.904031 
L 810.664818 123.904031 
L 810.664818 106.169903 
L 162.97 106.169903 
z
" clip-path="url(#p7de7209c6b)" style="fill: #50c878; opacity: 0.8"/>
   </g>
   <g id="patch_17">
    <path d="M 162.97 94.347151 
L 820.331905 94.347151 
L 820.331905 76.613023 
L 162.97 76.613023 
z
" clip-path="url(#p7de7209c6b)" style="fill: #50c878; opacity: 0.8"/>
   </g>
   <g id="matplotlib.axis_1">
    <g id="xtick_1">
     <g id="line2d_1">
      <path d="M 162.97 529.72 
L 162.97 55.0365 
" clip-path="url(#p7de7209c6b)" style="fill: none; stroke-dasharray: 2.96,1.28; stroke-dashoffset: 0; stroke: #1e2d40; stroke-opacity: 0.3; stroke-width: 0.8"/>
     </g>
     <g id="line2d_2">
      <defs>
       <path id="m0f6dfbfe8f" d="M 0 0 
L 0 3.5 
" style="stroke: #e8ecf1; stroke-width: 0.8"/>
      </defs>
      <g>
       <use xlink:href="#m0f6dfbfe8f" x="162.97" y="529.72" style="fill: #e8ecf1; stroke: #e8ecf1; stroke-width: 0.8"/>
      </g>
     </g>
     <g id="text_1">
      <!-- 0 -->
      <g style="fill: #e8ecf1" transform="translate(160.037969 544.71375) scale(0.1 -0.1)">
       <defs>
        <path id="MicrosoftYaHei-30" d="M 284 2325 
Q 284 3606 709 4264 
Q 1134 4922 1941 4922 
Q 3478 4922 3478 2441 
Q 3478 1216 3045 567 
Q 2613 -81 1831 -81 
Q 1094 -81 689 534 
Q 284 1150 284 2325 
z
M 909 2353 
Q 909 425 1888 425 
Q 2850 425 2850 2384 
Q 2850 4413 1906 4413 
Q 909 4413 909 2353 
z
" transform="scale(0.015625)"/>
       </defs>
       <use xlink:href="#MicrosoftYaHei-30"/>
      </g>
     </g>
    </g>
    <g id="xtick_2">
     <g id="line2d_3">
      <path d="M 259.640868 529.72 
L 259.640868 55.0365 
" clip-path="url(#p7de7209c6b)" style="fill: none; stroke-dasharray: 2.96,1.28; stroke-dashoffset: 0; stroke: #1e2d40; stroke-opacity: 0.3; stroke-width: 0.8"/>
     </g>
     <g id="line2d_4">
      <g>
       <use xlink:href="#m0f6dfbfe8f" x="259.640868" y="529.72" style="fill: #e8ecf1; stroke: #e8ecf1; stroke-width: 0.8"/>
      </g>
     </g>
     <g id="text_2">
      <!-- 10 -->
      <g style="fill: #e8ecf1" transform="translate(253.776806 544.71375) scale(0.1 -0.1)">
       <defs>
        <path id="MicrosoftYaHei-31" d="M 1781 0 
L 1781 4141 
Q 1638 3997 1295 3819 
Q 953 3641 663 3569 
L 663 4169 
Q 1047 4275 1484 4508 
Q 1922 4741 2156 4947 
L 2388 4947 
L 2388 0 
L 1781 0 
z
" transform="scale(0.015625)"/>
       </defs>
       <use xlink:href="#MicrosoftYaHei-31"/>
       <use xlink:href="#MicrosoftYaHei-30" transform="translate(58.642578 0)"/>
      </g>
     </g>
    </g>
    <g id="xtick_3">
     <g id="line2d_5">
      <path d="M 356.311737 529.72 
L 356.311737 55.0365 
" clip-path="url(#p7de7209c6b)" style="fill: none; stroke-dasharray: 2.96,1.28; stroke-dashoffset: 0; stroke: #1e2d40; stroke-opacity: 0.3; stroke-width: 0.8"/>
     </g>
     <g id="line2d_6">
      <g>
       <use xlink:href="#m0f6dfbfe8f" x="356.311737" y="529.72" style="fill: #e8ecf1; stroke: #e8ecf1; stroke-width: 0.8"/>
      </g>
     </g>
     <g id="text_3">
      <!-- 20 -->
      <g style="fill: #e8ecf1" transform="translate(350.447674 544.71375) scale(0.1 -0.1)">
       <defs>
        <path id="MicrosoftYaHei-32" d="M 2666 3572 
Q 2666 3963 2419 4186 
Q 2172 4409 1747 4409 
Q 1447 4409 1140 4256 
Q 834 4103 569 3819 
L 569 4413 
Q 806 4659 1107 4790 
Q 1409 4922 1816 4922 
Q 2472 4922 2872 4570 
Q 3272 4219 3272 3619 
Q 3272 3084 3026 2693 
Q 2781 2303 2188 1894 
Q 1581 1475 1376 1294 
Q 1172 1113 1090 947 
Q 1009 781 1009 544 
L 3416 544 
L 3416 0 
L 372 0 
L 372 241 
Q 372 659 486 951 
Q 600 1244 862 1520 
Q 1125 1797 1681 2184 
Q 2250 2584 2458 2886 
Q 2666 3188 2666 3572 
z
" transform="scale(0.015625)"/>
       </defs>
       <use xlink:href="#MicrosoftYaHei-32"/>
       <use xlink:href="#MicrosoftYaHei-30" transform="translate(58.642578 0)"/>
      </g>
     </g>
    </g>
    <g id="xtick_4">
     <g id="line2d_7">
      <path d="M 452.982605 529.72 
L 452.982605 55.0365 
" clip-path="url(#p7de7209c6b)" style="fill: none; stroke-dasharray: 2.96,1.28; stroke-dashoffset: 0; stroke: #1e2d40; stroke-opacity: 0.3; stroke-width: 0.8"/>
     </g>
     <g id="line2d_8">
      <g>
       <use xlink:href="#m0f6dfbfe8f" x="452.982605" y="529.72" style="fill: #e8ecf1; stroke: #e8ecf1; stroke-width: 0.8"/>
      </g>
     </g>
     <g id="text_4">
      <!-- 30 -->
      <g style="fill: #e8ecf1" transform="translate(447.118543 544.71375) scale(0.1 -0.1)">
       <defs>
        <path id="MicrosoftYaHei-33" d="M 447 809 
Q 944 425 1569 425 
Q 2069 425 2361 670 
Q 2653 916 2653 1328 
Q 2653 2247 1338 2247 
L 934 2247 
L 934 2753 
L 1319 2753 
Q 2484 2753 2484 3616 
Q 2484 4413 1594 4413 
Q 1084 4413 634 4069 
L 634 4647 
Q 1109 4922 1744 4922 
Q 2363 4922 2738 4598 
Q 3113 4275 3113 3759 
Q 3113 2809 2144 2538 
L 2144 2525 
Q 2669 2469 2973 2155 
Q 3278 1841 3278 1372 
Q 3278 719 2808 319 
Q 2338 -81 1556 -81 
Q 869 -81 447 175 
L 447 809 
z
" transform="scale(0.015625)"/>
       </defs>
       <use xlink:href="#MicrosoftYaHei-33"/>
       <use xlink:href="#MicrosoftYaHei-30" transform="translate(58.642578 0)"/>
      </g>
     </g>
    </g>
    <g id="xtick_5">
     <g id="line2d_9">
      <path d="M 549.653473 529.72 
L 549.653473 55.0365 
" clip-path="url(#p7de7209c6b)" style="fill: none; stroke-dasharray: 2.96,1.28; stroke-dashoffset: 0; stroke: #1e2d40; stroke-opacity: 0.3; stroke-width: 0.8"/>
     </g>
     <g id="line2d_10">
      <g>
       <use xlink:href="#m0f6dfbfe8f" x="549.653473" y="529.72" style="fill: #e8ecf1; stroke: #e8ecf1; stroke-width: 0.8"/>
      </g>
     </g>
     <g id="text_5">
      <!-- 40 -->
      <g style="fill: #e8ecf1" transform="translate(543.789411 544.71375) scale(0.1 -0.1)">
       <defs>
        <path id="MicrosoftYaHei-34" d="M 2906 4841 
L 2906 1644 
L 3631 1644 
L 3631 1138 
L 2906 1138 
L 2906 0 
L 2313 0 
L 2313 1138 
L 53 1138 
L 53 1616 
Q 656 2294 1265 3178 
Q 1875 4063 2272 4841 
L 2906 4841 
z
M 741 1644 
L 2313 1644 
L 2313 3950 
Q 1988 3366 1616 2817 
Q 1244 2269 741 1644 
z
" transform="scale(0.015625)"/>
       </defs>
       <use xlink:href="#MicrosoftYaHei-34"/>
       <use xlink:href="#MicrosoftYaHei-30" transform="translate(58.642578 0)"/>
      </g>
     </g>
    </g>
    <g id="xtick_6">
     <g id="line2d_11">
      <path d="M 646.324342 529.72 
L 646.324342 55.0365 
" clip-path="url(#p7de7209c6b)" style="fill: none; stroke-dasharray: 2.96,1.28; stroke-dashoffset: 0; stroke: #1e2d40; stroke-opacity: 0.3; stroke-width: 0.8"/>
     </g>
     <g id="line2d_12">
      <g>
       <use xlink:href="#m0f6dfbfe8f" x="646.324342" y="529.72" style="fill: #e8ecf1; stroke: #e8ecf1; stroke-width: 0.8"/>
      </g>
     </g>
     <g id="text_6">
      <!-- 50 -->
      <g style="fill: #e8ecf1" transform="translate(640.460279 544.71375) scale(0.1 -0.1)">
       <defs>
        <path id="MicrosoftYaHei-35" d="M 3294 1494 
Q 3294 784 2823 350 
Q 2353 -84 1559 -84 
Q 878 -84 544 119 
L 544 744 
Q 1034 425 1544 425 
Q 2050 425 2361 704 
Q 2672 984 2672 1447 
Q 2672 1909 2348 2167 
Q 2025 2425 1434 2425 
Q 978 2425 613 2384 
L 791 4841 
L 3053 4841 
L 3053 4303 
L 1306 4303 
L 1206 2931 
L 1647 2950 
Q 2416 2950 2855 2567 
Q 3294 2184 3294 1494 
z
" transform="scale(0.015625)"/>
       </defs>
       <use xlink:href="#MicrosoftYaHei-35"/>
       <use xlink:href="#MicrosoftYaHei-30" transform="translate(58.642578 0)"/>
      </g>
     </g>
    </g>
    <g id="xtick_7">
     <g id="line2d_13">
      <path d="M 742.99521 529.72 
L 742.99521 55.0365 
" clip-path="url(#p7de7209c6b)" style="fill: none; stroke-dasharray: 2.96,1.28; stroke-dashoffset: 0; stroke: #1e2d40; stroke-opacity: 0.3; stroke-width: 0.8"/>
     </g>
     <g id="line2d_14">
      <g>
       <use xlink:href="#m0f6dfbfe8f" x="742.99521" y="529.72" style="fill: #e8ecf1; stroke: #e8ecf1; stroke-width: 0.8"/>
      </g>
     </g>
     <g id="text_7">
      <!-- 60 -->
      <g style="fill: #e8ecf1" transform="translate(737.131148 544.71375) scale(0.1 -0.1)">
       <defs>
        <path id="MicrosoftYaHei-36" d="M 3181 4219 
Q 2803 4413 2391 4413 
Q 1763 4413 1381 3866 
Q 1000 3319 994 2372 
L 1009 2372 
Q 1353 3038 2106 3038 
Q 2734 3038 3109 2628 
Q 3484 2219 3484 1541 
Q 3484 831 3051 375 
Q 2619 -81 1947 -81 
Q 1209 -81 789 495 
Q 369 1072 369 2131 
Q 369 3413 920 4167 
Q 1472 4922 2372 4922 
Q 2888 4922 3181 4781 
L 3181 4219 
z
M 1031 1584 
Q 1031 1106 1286 765 
Q 1541 425 1963 425 
Q 2363 425 2613 719 
Q 2863 1013 2863 1475 
Q 2863 1975 2627 2253 
Q 2391 2531 1956 2531 
Q 1544 2531 1287 2250 
Q 1031 1969 1031 1584 
z
" transform="scale(0.015625)"/>
       </defs>
       <use xlink:href="#MicrosoftYaHei-36"/>
       <use xlink:href="#MicrosoftYaHei-30" transform="translate(58.642578 0)"/>
      </g>
     </g>
    </g>
    <g id="xtick_8">
     <g id="line2d_15">
      <path d="M 839.666078 529.72 
L 839.666078 55.0365 
" clip-path="url(#p7de7209c6b)" style="fill: none; stroke-dasharray: 2.96,1.28; stroke-dashoffset: 0; stroke: #1e2d40; stroke-opacity: 0.3; stroke-width: 0.8"/>
     </g>
     <g id="line2d_16">
      <g>
       <use xlink:href="#m0f6dfbfe8f" x="839.666078" y="529.72" style="fill: #e8ecf1; stroke: #e8ecf1; stroke-width: 0.8"/>
      </g>
     </g>
     <g id="text_8">
      <!-- 70 -->
      <g style="fill: #e8ecf1" transform="translate(833.802016 544.71375) scale(0.1 -0.1)">
       <defs>
        <path id="MicrosoftYaHei-37" d="M 3422 4463 
Q 2659 3131 2223 1998 
Q 1788 866 1684 0 
L 1047 0 
Q 1163 853 1594 1947 
Q 2025 3041 2747 4300 
L 347 4300 
L 347 4841 
L 3422 4841 
L 3422 4463 
z
" transform="scale(0.015625)"/>
       </defs>
       <use xlink:href="#MicrosoftYaHei-37"/>
       <use xlink:href="#MicrosoftYaHei-30" transform="translate(58.642578 0)"/>
      </g>
     </g>
    </g>
    <g id="text_9">
     <!-- 支持度 (%) -->
     <g style="fill: #e8ecf1" transform="translate(478.9625 560.792187) scale(0.12 -0.12)">
      <defs>
       <path id="MicrosoftYaHei-652f" d="M 163 4434 
L 3000 4434 
L 3000 5334 
L 3513 5334 
L 3513 4434 
L 6219 4434 
L 6219 3978 
L 3513 3978 
L 3513 3053 
L 5275 3053 
L 5275 2622 
Q 4713 1378 3681 544 
Q 4703 -9 6306 -241 
Q 6081 -553 5950 -784 
Q 4166 -431 3209 213 
Q 2188 -419 419 -878 
Q 294 -591 144 -384 
Q 1847 -3 2797 531 
Q 1891 1309 1394 2597 
L 775 2597 
L 775 3053 
L 3000 3053 
L 3000 3978 
L 163 3978 
L 163 4434 
z
M 4669 2597 
L 1922 2597 
Q 2378 1469 3241 822 
Q 4209 1556 4669 2597 
z
" transform="scale(0.015625)"/>
       <path id="MicrosoftYaHei-6301" d="M 88 1978 
Q 563 2084 963 2181 
L 963 3647 
L 144 3647 
L 144 4097 
L 963 4097 
L 963 5303 
L 1450 5303 
L 1450 4097 
L 2250 4097 
L 2250 3647 
L 1450 3647 
L 1450 2303 
Q 1841 2406 2138 2497 
Q 2144 2272 2181 2009 
Q 1791 1906 1450 1813 
L 1450 -72 
Q 1450 -772 813 -772 
Q 619 -772 219 -759 
Q 194 -503 138 -241 
Q 531 -284 706 -284 
Q 963 -284 963 9 
L 963 1678 
Q 500 1547 150 1441 
L 88 1978 
z
M 2175 3097 
L 3975 3097 
L 3975 3972 
L 2531 3972 
L 2531 4422 
L 3975 4422 
L 3975 5303 
L 4463 5303 
L 4463 4422 
L 5925 4422 
L 5925 3972 
L 4463 3972 
L 4463 3097 
L 6319 3097 
L 6319 2647 
L 2175 2647 
L 2175 3097 
z
M 2200 1797 
L 4844 1797 
L 4844 2434 
L 5331 2434 
L 5331 1797 
L 6263 1797 
L 6263 1347 
L 5331 1347 
L 5331 -72 
Q 5331 -759 4688 -766 
Q 4300 -772 3763 -759 
Q 3738 -553 3694 -266 
Q 4169 -316 4544 -316 
Q 4844 -316 4844 22 
L 4844 1347 
L 2200 1347 
L 2200 1797 
z
M 2594 972 
L 2944 1228 
Q 3406 741 3731 309 
L 3313 16 
Q 3006 491 2594 972 
z
" transform="scale(0.015625)"/>
       <path id="MicrosoftYaHei-5ea6" d="M 1550 1216 
L 1550 1628 
L 5469 1628 
L 5469 1222 
Q 4903 613 4147 163 
Q 5050 -200 6263 -309 
L 6019 -797 
Q 4625 -603 3644 -109 
Q 2600 -619 1250 -866 
Q 1150 -666 994 -416 
Q 2231 -222 3166 166 
Q 2497 600 2066 1216 
L 1550 1216 
z
M 1363 3541 
L 2294 3541 
L 2294 4066 
L 2769 4066 
L 2769 3541 
L 4538 3541 
L 4538 4072 
L 5013 4072 
L 5013 3541 
L 6150 3541 
L 6150 3128 
L 5013 3128 
L 5013 1928 
L 4538 1928 
L 4538 2147 
L 2769 2147 
L 2769 1922 
L 2294 1922 
L 2294 3128 
L 1363 3128 
L 1363 3541 
z
M 3025 5172 
L 3481 5391 
Q 3694 5056 3909 4634 
L 6213 4634 
L 6213 4197 
L 1225 4197 
L 1225 2316 
Q 1225 178 394 -872 
Q 238 -666 38 -447 
Q 725 397 738 2347 
L 738 4634 
L 3331 4634 
Q 3188 4909 3025 5172 
z
M 2769 2547 
L 4538 2547 
L 4538 3128 
L 2769 3128 
L 2769 2547 
z
M 4819 1216 
L 2588 1216 
Q 3031 728 3656 391 
Q 4334 741 4819 1216 
z
" transform="scale(0.015625)"/>
       <path id="MicrosoftYaHei-20" transform="scale(0.015625)"/>
       <path id="MicrosoftYaHei-28" d="M 1531 -1100 
Q 478 100 478 1847 
Q 478 3594 1531 4841 
L 2072 4841 
Q 1016 3544 1016 1853 
Q 1016 166 2066 -1100 
L 1531 -1100 
z
" transform="scale(0.015625)"/>
       <path id="MicrosoftYaHei-25" d="M 272 3619 
Q 272 4213 589 4563 
Q 906 4913 1444 4913 
Q 1959 4913 2248 4591 
Q 2538 4269 2538 3694 
Q 2538 3122 2219 2765 
Q 1900 2409 1372 2409 
Q 872 2409 572 2740 
Q 272 3072 272 3619 
z
M 753 3650 
Q 753 3247 928 3028 
Q 1103 2809 1406 2809 
Q 1719 2809 1889 3036 
Q 2059 3263 2059 3675 
Q 2059 4078 1892 4298 
Q 1725 4519 1422 4519 
Q 1113 4519 933 4289 
Q 753 4059 753 3650 
z
M 4647 4841 
L 1538 -31 
L 1016 -31 
L 4125 4841 
L 4647 4841 
z
M 3172 1134 
Q 3172 1728 3489 2083 
Q 3806 2438 4341 2438 
Q 4853 2438 5143 2114 
Q 5434 1791 5434 1203 
Q 5434 634 5112 279 
Q 4791 -75 4272 -75 
Q 3769 -75 3470 261 
Q 3172 597 3172 1134 
z
M 3650 1163 
Q 3650 769 3825 548 
Q 4000 328 4303 328 
Q 4616 328 4786 556 
Q 4956 784 4956 1194 
Q 4956 1600 4786 1815 
Q 4616 2031 4319 2031 
Q 4000 2031 3825 1801 
Q 3650 1572 3650 1163 
z
" transform="scale(0.015625)"/>
       <path id="MicrosoftYaHei-29" d="M 78 -1100 
Q 1131 163 1131 1853 
Q 1131 3547 72 4841 
L 616 4841 
Q 1672 3603 1672 1847 
Q 1672 91 616 -1100 
L 78 -1100 
z
" transform="scale(0.015625)"/>
      </defs>
      <use xlink:href="#MicrosoftYaHei-652f"/>
      <use xlink:href="#MicrosoftYaHei-6301" transform="translate(100 0)"/>
      <use xlink:href="#MicrosoftYaHei-5ea6" transform="translate(200 0)"/>
      <use xlink:href="#MicrosoftYaHei-20" transform="translate(300 0)"/>
      <use xlink:href="#MicrosoftYaHei-28" transform="translate(329.589844 0)"/>
      <use xlink:href="#MicrosoftYaHei-25" transform="translate(362.988281 0)"/>
      <use xlink:href="#MicrosoftYaHei-29" transform="translate(451.953125 0)"/>
     </g>
    </g>
   </g>
   <g id="matplotlib.axis_2">
    <g id="ytick_1">
     <g id="line2d_17">
      <defs>
       <path id="m67659407ac" d="M 0 0 
L -3.5 0 
" style="stroke: #e8ecf1; stroke-width: 0.8"/>
      </defs>
      <g>
       <use xlink:href="#m67659407ac" x="162.97" y="499.276413" style="fill: #e8ecf1; stroke: #e8ecf1; stroke-width: 0.8"/>
      </g>
     </g>
     <g id="text_10">
      <!-- L2-03-01 → L2-04-01 → L2-03-02 -->
      <g style="fill: #e8ecf1" transform="translate(10.933594 502.873601) scale(0.09 -0.09)">
       <defs>
        <path id="MicrosoftYaHei-4c" d="M 3178 0 
L 625 0 
L 625 4841 
L 1250 4841 
L 1250 553 
L 3178 553 
L 3178 0 
z
" transform="scale(0.015625)"/>
        <path id="MicrosoftYaHei-2d" d="M 2328 1681 
L 488 1681 
L 488 2153 
L 2328 2153 
L 2328 1681 
z
" transform="scale(0.015625)"/>
        <path id="MicrosoftYaHei-2192" d="M 4859 3766 
Q 5241 3344 5514 3125 
Q 5788 2906 6150 2713 
L 6150 2572 
Q 5788 2381 5517 2164 
Q 5247 1947 4859 1519 
L 4622 1519 
Q 4766 1822 4866 1983 
Q 4966 2144 5141 2369 
L 247 2369 
L 247 2916 
L 5141 2916 
Q 4972 3131 4869 3298 
Q 4766 3466 4622 3766 
L 4859 3766 
z
" transform="scale(0.015625)"/>
       </defs>
       <use xlink:href="#MicrosoftYaHei-4c"/>
       <use xlink:href="#MicrosoftYaHei-32" transform="translate(51.318359 0)"/>
       <use xlink:href="#MicrosoftYaHei-2d" transform="translate(109.960938 0)"/>
       <use xlink:href="#MicrosoftYaHei-30" transform="translate(153.222656 0)"/>
       <use xlink:href="#MicrosoftYaHei-33" transform="translate(211.865234 0)"/>
       <use xlink:href="#MicrosoftYaHei-2d" transform="translate(270.507812 0)"/>
       <use xlink:href="#MicrosoftYaHei-30" transform="translate(313.769531 0)"/>
       <use xlink:href="#MicrosoftYaHei-31" transform="translate(372.412109 0)"/>
       <use xlink:href="#MicrosoftYaHei-20" transform="translate(431.054688 0)"/>
       <use xlink:href="#MicrosoftYaHei-2192" transform="translate(460.644531 0)"/>
       <use xlink:href="#MicrosoftYaHei-20" transform="translate(560.644531 0)"/>
       <use xlink:href="#MicrosoftYaHei-4c" transform="translate(590.234375 0)"/>
       <use xlink:href="#MicrosoftYaHei-32" transform="translate(641.552734 0)"/>
       <use xlink:href="#MicrosoftYaHei-2d" transform="translate(700.195312 0)"/>
       <use xlink:href="#MicrosoftYaHei-30" transform="translate(743.457031 0)"/>
       <use xlink:href="#MicrosoftYaHei-34" transform="translate(802.099609 0)"/>
       <use xlink:href="#MicrosoftYaHei-2d" transform="translate(860.742188 0)"/>
       <use xlink:href="#MicrosoftYaHei-30" transform="translate(904.003906 0)"/>
       <use xlink:href="#MicrosoftYaHei-31" transform="translate(962.646484 0)"/>
       <use xlink:href="#MicrosoftYaHei-20" transform="translate(1021.289062 0)"/>
       <use xlink:href="#MicrosoftYaHei-2192" transform="translate(1050.878906 0)"/>
       <use xlink:href="#MicrosoftYaHei-20" transform="translate(1150.878906 0)"/>
       <use xlink:href="#MicrosoftYaHei-4c" transform="translate(1180.46875 0)"/>
       <use xlink:href="#MicrosoftYaHei-32" transform="translate(1231.787109 0)"/>
       <use xlink:href="#MicrosoftYaHei-2d" transform="translate(1290.429688 0)"/>
       <use xlink:href="#MicrosoftYaHei-30" transform="translate(1333.691406 0)"/>
       <use xlink:href="#MicrosoftYaHei-33" transform="translate(1392.333984 0)"/>
       <use xlink:href="#MicrosoftYaHei-2d" transform="translate(1450.976562 0)"/>
       <use xlink:href="#MicrosoftYaHei-30" transform="translate(1494.238281 0)"/>
       <use xlink:href="#MicrosoftYaHei-32" transform="translate(1552.880859 0)"/>
      </g>
     </g>
    </g>
    <g id="ytick_2">
     <g id="line2d_18">
      <g>
       <use xlink:href="#m67659407ac" x="162.97" y="469.719533" style="fill: #e8ecf1; stroke: #e8ecf1; stroke-width: 0.8"/>
      </g>
     </g>
     <g id="text_11">
      <!-- L2-04-01 → L2-03-03 -->
      <g style="fill: #e8ecf1" transform="translate(64.054688 473.31672) scale(0.09 -0.09)">
       <use xlink:href="#MicrosoftYaHei-4c"/>
       <use xlink:href="#MicrosoftYaHei-32" transform="translate(51.318359 0)"/>
       <use xlink:href="#MicrosoftYaHei-2d" transform="translate(109.960938 0)"/>
       <use xlink:href="#MicrosoftYaHei-30" transform="translate(153.222656 0)"/>
       <use xlink:href="#MicrosoftYaHei-34" transform="translate(211.865234 0)"/>
       <use xlink:href="#MicrosoftYaHei-2d" transform="translate(270.507812 0)"/>
       <use xlink:href="#MicrosoftYaHei-30" transform="translate(313.769531 0)"/>
       <use xlink:href="#MicrosoftYaHei-31" transform="translate(372.412109 0)"/>
       <use xlink:href="#MicrosoftYaHei-20" transform="translate(431.054688 0)"/>
       <use xlink:href="#MicrosoftYaHei-2192" transform="translate(460.644531 0)"/>
       <use xlink:href="#MicrosoftYaHei-20" transform="translate(560.644531 0)"/>
       <use xlink:href="#MicrosoftYaHei-4c" transform="translate(590.234375 0)"/>
       <use xlink:href="#MicrosoftYaHei-32" transform="translate(641.552734 0)"/>
       <use xlink:href="#MicrosoftYaHei-2d" transform="translate(700.195312 0)"/>
       <use xlink:href="#MicrosoftYaHei-30" transform="translate(743.457031 0)"/>
       <use xlink:href="#MicrosoftYaHei-33" transform="translate(802.099609 0)"/>
       <use xlink:href="#MicrosoftYaHei-2d" transform="translate(860.742188 0)"/>
       <use xlink:href="#MicrosoftYaHei-30" transform="translate(904.003906 0)"/>
       <use xlink:href="#MicrosoftYaHei-33" transform="translate(962.646484 0)"/>
      </g>
     </g>
    </g>
    <g id="ytick_3">
     <g id="line2d_19">
      <g>
       <use xlink:href="#m67659407ac" x="162.97" y="440.162652" style="fill: #e8ecf1; stroke: #e8ecf1; stroke-width: 0.8"/>
      </g>
     </g>
     <g id="text_12">
      <!-- L2-04-01 → L2-03-02 -->
      <g style="fill: #e8ecf1" transform="translate(64.054688 443.75984) scale(0.09 -0.09)">
       <use xlink:href="#MicrosoftYaHei-4c"/>
       <use xlink:href="#MicrosoftYaHei-32" transform="translate(51.318359 0)"/>
       <use xlink:href="#MicrosoftYaHei-2d" transform="translate(109.960938 0)"/>
       <use xlink:href="#MicrosoftYaHei-30" transform="translate(153.222656 0)"/>
       <use xlink:href="#MicrosoftYaHei-34" transform="translate(211.865234 0)"/>
       <use xlink:href="#MicrosoftYaHei-2d" transform="translate(270.507812 0)"/>
       <use xlink:href="#MicrosoftYaHei-30" transform="translate(313.769531 0)"/>
       <use xlink:href="#MicrosoftYaHei-31" transform="translate(372.412109 0)"/>
       <use xlink:href="#MicrosoftYaHei-20" transform="translate(431.054688 0)"/>
       <use xlink:href="#MicrosoftYaHei-2192" transform="translate(460.644531 0)"/>
       <use xlink:href="#MicrosoftYaHei-20" transform="translate(560.644531 0)"/>
       <use xlink:href="#MicrosoftYaHei-4c" transform="translate(590.234375 0)"/>
       <use xlink:href="#MicrosoftYaHei-32" transform="translate(641.552734 0)"/>
       <use xlink:href="#MicrosoftYaHei-2d" transform="translate(700.195312 0)"/>
       <use xlink:href="#MicrosoftYaHei-30" transform="translate(743.457031 0)"/>
       <use xlink:href="#MicrosoftYaHei-33" transform="translate(802.099609 0)"/>
       <use xlink:href="#MicrosoftYaHei-2d" transform="translate(860.742188 0)"/>
       <use xlink:href="#MicrosoftYaHei-30" transform="translate(904.003906 0)"/>
       <use xlink:href="#MicrosoftYaHei-32" transform="translate(962.646484 0)"/>
      </g>
     </g>
    </g>
    <g id="ytick_4">
     <g id="line2d_20">
      <g>
       <use xlink:href="#m67659407ac" x="162.97" y="410.605772" style="fill: #e8ecf1; stroke: #e8ecf1; stroke-width: 0.8"/>
      </g>
     </g>
     <g id="text_13">
      <!-- L2-02-02 → L2-03-01 → L2-04-01 -->
      <g style="fill: #e8ecf1" transform="translate(10.933594 414.202959) scale(0.09 -0.09)">
       <use xlink:href="#MicrosoftYaHei-4c"/>
       <use xlink:href="#MicrosoftYaHei-32" transform="translate(51.318359 0)"/>
       <use xlink:href="#MicrosoftYaHei-2d" transform="translate(109.960938 0)"/>
       <use xlink:href="#MicrosoftYaHei-30" transform="translate(153.222656 0)"/>
       <use xlink:href="#MicrosoftYaHei-32" transform="translate(211.865234 0)"/>
       <use xlink:href="#MicrosoftYaHei-2d" transform="translate(270.507812 0)"/>
       <use xlink:href="#MicrosoftYaHei-30" transform="translate(313.769531 0)"/>
       <use xlink:href="#MicrosoftYaHei-32" transform="translate(372.412109 0)"/>
       <use xlink:href="#MicrosoftYaHei-20" transform="translate(431.054688 0)"/>
       <use xlink:href="#MicrosoftYaHei-2192" transform="translate(460.644531 0)"/>
       <use xlink:href="#MicrosoftYaHei-20" transform="translate(560.644531 0)"/>
       <use xlink:href="#MicrosoftYaHei-4c" transform="translate(590.234375 0)"/>
       <use xlink:href="#MicrosoftYaHei-32" transform="translate(641.552734 0)"/>
       <use xlink:href="#MicrosoftYaHei-2d" transform="translate(700.195312 0)"/>
       <use xlink:href="#MicrosoftYaHei-30" transform="translate(743.457031 0)"/>
       <use xlink:href="#MicrosoftYaHei-33" transform="translate(802.099609 0)"/>
       <use xlink:href="#MicrosoftYaHei-2d" transform="translate(860.742188 0)"/>
       <use xlink:href="#MicrosoftYaHei-30" transform="translate(904.003906 0)"/>
       <use xlink:href="#MicrosoftYaHei-31" transform="translate(962.646484 0)"/>
       <use xlink:href="#MicrosoftYaHei-20" transform="translate(1021.289062 0)"/>
       <use xlink:href="#MicrosoftYaHei-2192" transform="translate(1050.878906 0)"/>
       <use xlink:href="#MicrosoftYaHei-20" transform="translate(1150.878906 0)"/>
       <use xlink:href="#MicrosoftYaHei-4c" transform="translate(1180.46875 0)"/>
       <use xlink:href="#MicrosoftYaHei-32" transform="translate(1231.787109 0)"/>
       <use xlink:href="#MicrosoftYaHei-2d" transform="translate(1290.429688 0)"/>
       <use xlink:href="#MicrosoftYaHei-30" transform="translate(1333.691406 0)"/>
       <use xlink:href="#MicrosoftYaHei-34" transform="translate(1392.333984 0)"/>
       <use xlink:href="#MicrosoftYaHei-2d" transform="translate(1450.976562 0)"/>
       <use xlink:href="#MicrosoftYaHei-30" transform="translate(1494.238281 0)"/>
       <use xlink:href="#MicrosoftYaHei-31" transform="translate(1552.880859 0)"/>
      </g>
     </g>
    </g>
    <g id="ytick_5">
     <g id="line2d_21">
      <g>
       <use xlink:href="#m67659407ac" x="162.97" y="381.048891" style="fill: #e8ecf1; stroke: #e8ecf1; stroke-width: 0.8"/>
      </g>
     </g>
     <g id="text_14">
      <!-- L2-01-08 → L2-02-02 -->
      <g style="fill: #e8ecf1" transform="translate(64.054688 384.646079) scale(0.09 -0.09)">
       <defs>
        <path id="MicrosoftYaHei-38" d="M 306 1350 
Q 306 1769 556 2122 
Q 806 2475 1200 2625 
Q 884 2803 700 3081 
Q 516 3359 516 3684 
Q 516 4028 692 4312 
Q 869 4597 1183 4759 
Q 1497 4922 1875 4922 
Q 2256 4922 2572 4761 
Q 2888 4600 3063 4315 
Q 3238 4031 3238 3684 
Q 3238 3366 3058 3086 
Q 2878 2806 2559 2625 
Q 2953 2472 3200 2119 
Q 3447 1766 3447 1350 
Q 3447 938 3250 611 
Q 3053 284 2690 103 
Q 2328 -78 1875 -78 
Q 1425 -78 1065 103 
Q 706 284 506 612 
Q 306 941 306 1350 
z
M 906 1378 
Q 906 947 1172 687 
Q 1438 428 1878 428 
Q 2309 428 2582 692 
Q 2856 956 2856 1378 
Q 2856 1778 2579 2051 
Q 2303 2325 1878 2325 
Q 1456 2325 1181 2058 
Q 906 1791 906 1378 
z
M 1081 3634 
Q 1081 3309 1312 3076 
Q 1544 2844 1878 2844 
Q 2206 2844 2445 3078 
Q 2684 3313 2684 3634 
Q 2684 3963 2454 4191 
Q 2225 4419 1878 4419 
Q 1534 4419 1307 4195 
Q 1081 3972 1081 3634 
z
" transform="scale(0.015625)"/>
       </defs>
       <use xlink:href="#MicrosoftYaHei-4c"/>
       <use xlink:href="#MicrosoftYaHei-32" transform="translate(51.318359 0)"/>
       <use xlink:href="#MicrosoftYaHei-2d" transform="translate(109.960938 0)"/>
       <use xlink:href="#MicrosoftYaHei-30" transform="translate(153.222656 0)"/>
       <use xlink:href="#MicrosoftYaHei-31" transform="translate(211.865234 0)"/>
       <use xlink:href="#MicrosoftYaHei-2d" transform="translate(270.507812 0)"/>
       <use xlink:href="#MicrosoftYaHei-30" transform="translate(313.769531 0)"/>
       <use xlink:href="#MicrosoftYaHei-38" transform="translate(372.412109 0)"/>
       <use xlink:href="#MicrosoftYaHei-20" transform="translate(431.054688 0)"/>
       <use xlink:href="#MicrosoftYaHei-2192" transform="translate(460.644531 0)"/>
       <use xlink:href="#MicrosoftYaHei-20" transform="translate(560.644531 0)"/>
       <use xlink:href="#MicrosoftYaHei-4c" transform="translate(590.234375 0)"/>
       <use xlink:href="#MicrosoftYaHei-32" transform="translate(641.552734 0)"/>
       <use xlink:href="#MicrosoftYaHei-2d" transform="translate(700.195312 0)"/>
       <use xlink:href="#MicrosoftYaHei-30" transform="translate(743.457031 0)"/>
       <use xlink:href="#MicrosoftYaHei-32" transform="translate(802.099609 0)"/>
       <use xlink:href="#MicrosoftYaHei-2d" transform="translate(860.742188 0)"/>
       <use xlink:href="#MicrosoftYaHei-30" transform="translate(904.003906 0)"/>
       <use xlink:href="#MicrosoftYaHei-32" transform="translate(962.646484 0)"/>
      </g>
     </g>
    </g>
    <g id="ytick_6">
     <g id="line2d_22">
      <g>
       <use xlink:href="#m67659407ac" x="162.97" y="351.492011" style="fill: #e8ecf1; stroke: #e8ecf1; stroke-width: 0.8"/>
      </g>
     </g>
     <g id="text_15">
      <!-- L2-01-08 → L2-09-01 -->
      <g style="fill: #e8ecf1" transform="translate(64.054688 355.089198) scale(0.09 -0.09)">
       <defs>
        <path id="MicrosoftYaHei-39" d="M 578 656 
Q 978 425 1441 425 
Q 2091 425 2448 937 
Q 2806 1450 2806 2394 
Q 2800 2388 2794 2394 
Q 2475 1788 1722 1788 
Q 1113 1788 713 2206 
Q 313 2625 313 3294 
Q 313 4006 750 4464 
Q 1188 4922 1884 4922 
Q 2606 4922 3012 4355 
Q 3419 3788 3419 2703 
Q 3419 1363 2894 641 
Q 2369 -81 1441 -81 
Q 931 -81 578 84 
L 578 656 
z
M 931 3372 
Q 931 2884 1181 2598 
Q 1431 2313 1872 2313 
Q 2253 2313 2512 2573 
Q 2772 2834 2772 3206 
Q 2772 3728 2514 4070 
Q 2256 4413 1834 4413 
Q 1444 4413 1187 4116 
Q 931 3819 931 3372 
z
" transform="scale(0.015625)"/>
       </defs>
       <use xlink:href="#MicrosoftYaHei-4c"/>
       <use xlink:href="#MicrosoftYaHei-32" transform="translate(51.318359 0)"/>
       <use xlink:href="#MicrosoftYaHei-2d" transform="translate(109.960938 0)"/>
       <use xlink:href="#MicrosoftYaHei-30" transform="translate(153.222656 0)"/>
       <use xlink:href="#MicrosoftYaHei-31" transform="translate(211.865234 0)"/>
       <use xlink:href="#MicrosoftYaHei-2d" transform="translate(270.507812 0)"/>
       <use xlink:href="#MicrosoftYaHei-30" transform="translate(313.769531 0)"/>
       <use xlink:href="#MicrosoftYaHei-38" transform="translate(372.412109 0)"/>
       <use xlink:href="#MicrosoftYaHei-20" transform="translate(431.054688 0)"/>
       <use xlink:href="#MicrosoftYaHei-2192" transform="translate(460.644531 0)"/>
       <use xlink:href="#MicrosoftYaHei-20" transform="translate(560.644531 0)"/>
       <use xlink:href="#MicrosoftYaHei-4c" transform="translate(590.234375 0)"/>
       <use xlink:href="#MicrosoftYaHei-32" transform="translate(641.552734 0)"/>
       <use xlink:href="#MicrosoftYaHei-2d" transform="translate(700.195312 0)"/>
       <use xlink:href="#MicrosoftYaHei-30" transform="translate(743.457031 0)"/>
       <use xlink:href="#MicrosoftYaHei-39" transform="translate(802.099609 0)"/>
       <use xlink:href="#MicrosoftYaHei-2d" transform="translate(860.742188 0)"/>
       <use xlink:href="#MicrosoftYaHei-30" transform="translate(904.003906 0)"/>
       <use xlink:href="#MicrosoftYaHei-31" transform="translate(962.646484 0)"/>
      </g>
     </g>
    </g>
    <g id="ytick_7">
     <g id="line2d_23">
      <g>
       <use xlink:href="#m67659407ac" x="162.97" y="321.93513" style="fill: #e8ecf1; stroke: #e8ecf1; stroke-width: 0.8"/>
      </g>
     </g>
     <g id="text_16">
      <!-- L2-01-07 → L2-01-08 -->
      <g style="fill: #e8ecf1" transform="translate(64.054688 325.532318) scale(0.09 -0.09)">
       <use xlink:href="#MicrosoftYaHei-4c"/>
       <use xlink:href="#MicrosoftYaHei-32" transform="translate(51.318359 0)"/>
       <use xlink:href="#MicrosoftYaHei-2d" transform="translate(109.960938 0)"/>
       <use xlink:href="#MicrosoftYaHei-30" transform="translate(153.222656 0)"/>
       <use xlink:href="#MicrosoftYaHei-31" transform="translate(211.865234 0)"/>
       <use xlink:href="#MicrosoftYaHei-2d" transform="translate(270.507812 0)"/>
       <use xlink:href="#MicrosoftYaHei-30" transform="translate(313.769531 0)"/>
       <use xlink:href="#MicrosoftYaHei-37" transform="translate(372.412109 0)"/>
       <use xlink:href="#MicrosoftYaHei-20" transform="translate(431.054688 0)"/>
       <use xlink:href="#MicrosoftYaHei-2192" transform="translate(460.644531 0)"/>
       <use xlink:href="#MicrosoftYaHei-20" transform="translate(560.644531 0)"/>
       <use xlink:href="#MicrosoftYaHei-4c" transform="translate(590.234375 0)"/>
       <use xlink:href="#MicrosoftYaHei-32" transform="translate(641.552734 0)"/>
       <use xlink:href="#MicrosoftYaHei-2d" transform="translate(700.195312 0)"/>
       <use xlink:href="#MicrosoftYaHei-30" transform="translate(743.457031 0)"/>
       <use xlink:href="#MicrosoftYaHei-31" transform="translate(802.099609 0)"/>
       <use xlink:href="#MicrosoftYaHei-2d" transform="translate(860.742188 0)"/>
       <use xlink:href="#MicrosoftYaHei-30" transform="translate(904.003906 0)"/>
       <use xlink:href="#MicrosoftYaHei-38" transform="translate(962.646484 0)"/>
      </g>
     </g>
    </g>
    <g id="ytick_8">
     <g id="line2d_24">
      <g>
       <use xlink:href="#m67659407ac" x="162.97" y="292.37825" style="fill: #e8ecf1; stroke: #e8ecf1; stroke-width: 0.8"/>
      </g>
     </g>
     <g id="text_17">
      <!-- L2-03-02 → L2-04-07 -->
      <g style="fill: #e8ecf1" transform="translate(64.054688 295.975437) scale(0.09 -0.09)">
       <use xlink:href="#MicrosoftYaHei-4c"/>
       <use xlink:href="#MicrosoftYaHei-32" transform="translate(51.318359 0)"/>
       <use xlink:href="#MicrosoftYaHei-2d" transform="translate(109.960938 0)"/>
       <use xlink:href="#MicrosoftYaHei-30" transform="translate(153.222656 0)"/>
       <use xlink:href="#MicrosoftYaHei-33" transform="translate(211.865234 0)"/>
       <use xlink:href="#MicrosoftYaHei-2d" transform="translate(270.507812 0)"/>
       <use xlink:href="#MicrosoftYaHei-30" transform="translate(313.769531 0)"/>
       <use xlink:href="#MicrosoftYaHei-32" transform="translate(372.412109 0)"/>
       <use xlink:href="#MicrosoftYaHei-20" transform="translate(431.054688 0)"/>
       <use xlink:href="#MicrosoftYaHei-2192" transform="translate(460.644531 0)"/>
       <use xlink:href="#MicrosoftYaHei-20" transform="translate(560.644531 0)"/>
       <use xlink:href="#MicrosoftYaHei-4c" transform="translate(590.234375 0)"/>
       <use xlink:href="#MicrosoftYaHei-32" transform="translate(641.552734 0)"/>
       <use xlink:href="#MicrosoftYaHei-2d" transform="translate(700.195312 0)"/>
       <use xlink:href="#MicrosoftYaHei-30" transform="translate(743.457031 0)"/>
       <use xlink:href="#MicrosoftYaHei-34" transform="translate(802.099609 0)"/>
       <use xlink:href="#MicrosoftYaHei-2d" transform="translate(860.742188 0)"/>
       <use xlink:href="#MicrosoftYaHei-30" transform="translate(904.003906 0)"/>
       <use xlink:href="#MicrosoftYaHei-37" transform="translate(962.646484 0)"/>
      </g>
     </g>
    </g>
    <g id="ytick_9">
     <g id="line2d_25">
      <g>
       <use xlink:href="#m67659407ac" x="162.97" y="262.82137" style="fill: #e8ecf1; stroke: #e8ecf1; stroke-width: 0.8"/>
      </g>
     </g>
     <g id="text_18">
      <!-- L2-09-01 → L2-03-01 -->
      <g style="fill: #e8ecf1" transform="translate(64.054688 266.418557) scale(0.09 -0.09)">
       <use xlink:href="#MicrosoftYaHei-4c"/>
       <use xlink:href="#MicrosoftYaHei-32" transform="translate(51.318359 0)"/>
       <use xlink:href="#MicrosoftYaHei-2d" transform="translate(109.960938 0)"/>
       <use xlink:href="#MicrosoftYaHei-30" transform="translate(153.222656 0)"/>
       <use xlink:href="#MicrosoftYaHei-39" transform="translate(211.865234 0)"/>
       <use xlink:href="#MicrosoftYaHei-2d" transform="translate(270.507812 0)"/>
       <use xlink:href="#MicrosoftYaHei-30" transform="translate(313.769531 0)"/>
       <use xlink:href="#MicrosoftYaHei-31" transform="translate(372.412109 0)"/>
       <use xlink:href="#MicrosoftYaHei-20" transform="translate(431.054688 0)"/>
       <use xlink:href="#MicrosoftYaHei-2192" transform="translate(460.644531 0)"/>
       <use xlink:href="#MicrosoftYaHei-20" transform="translate(560.644531 0)"/>
       <use xlink:href="#MicrosoftYaHei-4c" transform="translate(590.234375 0)"/>
       <use xlink:href="#MicrosoftYaHei-32" transform="translate(641.552734 0)"/>
       <use xlink:href="#MicrosoftYaHei-2d" transform="translate(700.195312 0)"/>
       <use xlink:href="#MicrosoftYaHei-30" transform="translate(743.457031 0)"/>
       <use xlink:href="#MicrosoftYaHei-33" transform="translate(802.099609 0)"/>
       <use xlink:href="#MicrosoftYaHei-2d" transform="translate(860.742188 0)"/>
       <use xlink:href="#MicrosoftYaHei-30" transform="translate(904.003906 0)"/>
       <use xlink:href="#MicrosoftYaHei-31" transform="translate(962.646484 0)"/>
      </g>
     </g>
    </g>
    <g id="ytick_10">
     <g id="line2d_26">
      <g>
       <use xlink:href="#m67659407ac" x="162.97" y="233.264489" style="fill: #e8ecf1; stroke: #e8ecf1; stroke-width: 0.8"/>
      </g>
     </g>
     <g id="text_19">
      <!-- L2-02-02 → L2-03-01 -->
      <g style="fill: #e8ecf1" transform="translate(64.054688 236.861677) scale(0.09 -0.09)">
       <use xlink:href="#MicrosoftYaHei-4c"/>
       <use xlink:href="#MicrosoftYaHei-32" transform="translate(51.318359 0)"/>
       <use xlink:href="#MicrosoftYaHei-2d" transform="translate(109.960938 0)"/>
       <use xlink:href="#MicrosoftYaHei-30" transform="translate(153.222656 0)"/>
       <use xlink:href="#MicrosoftYaHei-32" transform="translate(211.865234 0)"/>
       <use xlink:href="#MicrosoftYaHei-2d" transform="translate(270.507812 0)"/>
       <use xlink:href="#MicrosoftYaHei-30" transform="translate(313.769531 0)"/>
       <use xlink:href="#MicrosoftYaHei-32" transform="translate(372.412109 0)"/>
       <use xlink:href="#MicrosoftYaHei-20" transform="translate(431.054688 0)"/>
       <use xlink:href="#MicrosoftYaHei-2192" transform="translate(460.644531 0)"/>
       <use xlink:href="#MicrosoftYaHei-20" transform="translate(560.644531 0)"/>
       <use xlink:href="#MicrosoftYaHei-4c" transform="translate(590.234375 0)"/>
       <use xlink:href="#MicrosoftYaHei-32" transform="translate(641.552734 0)"/>
       <use xlink:href="#MicrosoftYaHei-2d" transform="translate(700.195312 0)"/>
       <use xlink:href="#MicrosoftYaHei-30" transform="translate(743.457031 0)"/>
       <use xlink:href="#MicrosoftYaHei-33" transform="translate(802.099609 0)"/>
       <use xlink:href="#MicrosoftYaHei-2d" transform="translate(860.742188 0)"/>
       <use xlink:href="#MicrosoftYaHei-30" transform="translate(904.003906 0)"/>
       <use xlink:href="#MicrosoftYaHei-31" transform="translate(962.646484 0)"/>
      </g>
     </g>
    </g>
    <g id="ytick_11">
     <g id="line2d_27">
      <g>
       <use xlink:href="#m67659407ac" x="162.97" y="203.707609" style="fill: #e8ecf1; stroke: #e8ecf1; stroke-width: 0.8"/>
      </g>
     </g>
     <g id="text_20">
      <!-- L2-04-07 → L2-03-01 -->
      <g style="fill: #e8ecf1" transform="translate(64.054688 207.304796) scale(0.09 -0.09)">
       <use xlink:href="#MicrosoftYaHei-4c"/>
       <use xlink:href="#MicrosoftYaHei-32" transform="translate(51.318359 0)"/>
       <use xlink:href="#MicrosoftYaHei-2d" transform="translate(109.960938 0)"/>
       <use xlink:href="#MicrosoftYaHei-30" transform="translate(153.222656 0)"/>
       <use xlink:href="#MicrosoftYaHei-34" transform="translate(211.865234 0)"/>
       <use xlink:href="#MicrosoftYaHei-2d" transform="translate(270.507812 0)"/>
       <use xlink:href="#MicrosoftYaHei-30" transform="translate(313.769531 0)"/>
       <use xlink:href="#MicrosoftYaHei-37" transform="translate(372.412109 0)"/>
       <use xlink:href="#MicrosoftYaHei-20" transform="translate(431.054688 0)"/>
       <use xlink:href="#MicrosoftYaHei-2192" transform="translate(460.644531 0)"/>
       <use xlink:href="#MicrosoftYaHei-20" transform="translate(560.644531 0)"/>
       <use xlink:href="#MicrosoftYaHei-4c" transform="translate(590.234375 0)"/>
       <use xlink:href="#MicrosoftYaHei-32" transform="translate(641.552734 0)"/>
       <use xlink:href="#MicrosoftYaHei-2d" transform="translate(700.195312 0)"/>
       <use xlink:href="#MicrosoftYaHei-30" transform="translate(743.457031 0)"/>
       <use xlink:href="#MicrosoftYaHei-33" transform="translate(802.099609 0)"/>
       <use xlink:href="#MicrosoftYaHei-2d" transform="translate(860.742188 0)"/>
       <use xlink:href="#MicrosoftYaHei-30" transform="translate(904.003906 0)"/>
       <use xlink:href="#MicrosoftYaHei-31" transform="translate(962.646484 0)"/>
      </g>
     </g>
    </g>
    <g id="ytick_12">
     <g id="line2d_28">
      <g>
       <use xlink:href="#m67659407ac" x="162.97" y="174.150728" style="fill: #e8ecf1; stroke: #e8ecf1; stroke-width: 0.8"/>
      </g>
     </g>
     <g id="text_21">
      <!-- L2-03-05 → L2-04-07 -->
      <g style="fill: #e8ecf1" transform="translate(64.054688 177.747916) scale(0.09 -0.09)">
       <use xlink:href="#MicrosoftYaHei-4c"/>
       <use xlink:href="#MicrosoftYaHei-32" transform="translate(51.318359 0)"/>
       <use xlink:href="#MicrosoftYaHei-2d" transform="translate(109.960938 0)"/>
       <use xlink:href="#MicrosoftYaHei-30" transform="translate(153.222656 0)"/>
       <use xlink:href="#MicrosoftYaHei-33" transform="translate(211.865234 0)"/>
       <use xlink:href="#MicrosoftYaHei-2d" transform="translate(270.507812 0)"/>
       <use xlink:href="#MicrosoftYaHei-30" transform="translate(313.769531 0)"/>
       <use xlink:href="#MicrosoftYaHei-35" transform="translate(372.412109 0)"/>
       <use xlink:href="#MicrosoftYaHei-20" transform="translate(431.054688 0)"/>
       <use xlink:href="#MicrosoftYaHei-2192" transform="translate(460.644531 0)"/>
       <use xlink:href="#MicrosoftYaHei-20" transform="translate(560.644531 0)"/>
       <use xlink:href="#MicrosoftYaHei-4c" transform="translate(590.234375 0)"/>
       <use xlink:href="#MicrosoftYaHei-32" transform="translate(641.552734 0)"/>
       <use xlink:href="#MicrosoftYaHei-2d" transform="translate(700.195312 0)"/>
       <use xlink:href="#MicrosoftYaHei-30" transform="translate(743.457031 0)"/>
       <use xlink:href="#MicrosoftYaHei-34" transform="translate(802.099609 0)"/>
       <use xlink:href="#MicrosoftYaHei-2d" transform="translate(860.742188 0)"/>
       <use xlink:href="#MicrosoftYaHei-30" transform="translate(904.003906 0)"/>
       <use xlink:href="#MicrosoftYaHei-37" transform="translate(962.646484 0)"/>
      </g>
     </g>
    </g>
    <g id="ytick_13">
     <g id="line2d_29">
      <g>
       <use xlink:href="#m67659407ac" x="162.97" y="144.593848" style="fill: #e8ecf1; stroke: #e8ecf1; stroke-width: 0.8"/>
      </g>
     </g>
     <g id="text_22">
      <!-- L2-03-01 → L2-04-03 -->
      <g style="fill: #e8ecf1" transform="translate(64.054688 148.191035) scale(0.09 -0.09)">
       <use xlink:href="#MicrosoftYaHei-4c"/>
       <use xlink:href="#MicrosoftYaHei-32" transform="translate(51.318359 0)"/>
       <use xlink:href="#MicrosoftYaHei-2d" transform="translate(109.960938 0)"/>
       <use xlink:href="#MicrosoftYaHei-30" transform="translate(153.222656 0)"/>
       <use xlink:href="#MicrosoftYaHei-33" transform="translate(211.865234 0)"/>
       <use xlink:href="#MicrosoftYaHei-2d" transform="translate(270.507812 0)"/>
       <use xlink:href="#MicrosoftYaHei-30" transform="translate(313.769531 0)"/>
       <use xlink:href="#MicrosoftYaHei-31" transform="translate(372.412109 0)"/>
       <use xlink:href="#MicrosoftYaHei-20" transform="translate(431.054688 0)"/>
       <use xlink:href="#MicrosoftYaHei-2192" transform="translate(460.644531 0)"/>
       <use xlink:href="#MicrosoftYaHei-20" transform="translate(560.644531 0)"/>
       <use xlink:href="#MicrosoftYaHei-4c" transform="translate(590.234375 0)"/>
       <use xlink:href="#MicrosoftYaHei-32" transform="translate(641.552734 0)"/>
       <use xlink:href="#MicrosoftYaHei-2d" transform="translate(700.195312 0)"/>
       <use xlink:href="#MicrosoftYaHei-30" transform="translate(743.457031 0)"/>
       <use xlink:href="#MicrosoftYaHei-34" transform="translate(802.099609 0)"/>
       <use xlink:href="#MicrosoftYaHei-2d" transform="translate(860.742188 0)"/>
       <use xlink:href="#MicrosoftYaHei-30" transform="translate(904.003906 0)"/>
       <use xlink:href="#MicrosoftYaHei-33" transform="translate(962.646484 0)"/>
      </g>
     </g>
    </g>
    <g id="ytick_14">
     <g id="line2d_30">
      <g>
       <use xlink:href="#m67659407ac" x="162.97" y="115.036967" style="fill: #e8ecf1; stroke: #e8ecf1; stroke-width: 0.8"/>
      </g>
     </g>
     <g id="text_23">
      <!-- L2-03-01 → L2-04-01 -->
      <g style="fill: #e8ecf1" transform="translate(64.054688 118.634155) scale(0.09 -0.09)">
       <use xlink:href="#MicrosoftYaHei-4c"/>
       <use xlink:href="#MicrosoftYaHei-32" transform="translate(51.318359 0)"/>
       <use xlink:href="#MicrosoftYaHei-2d" transform="translate(109.960938 0)"/>
       <use xlink:href="#MicrosoftYaHei-30" transform="translate(153.222656 0)"/>
       <use xlink:href="#MicrosoftYaHei-33" transform="translate(211.865234 0)"/>
       <use xlink:href="#MicrosoftYaHei-2d" transform="translate(270.507812 0)"/>
       <use xlink:href="#MicrosoftYaHei-30" transform="translate(313.769531 0)"/>
       <use xlink:href="#MicrosoftYaHei-31" transform="translate(372.412109 0)"/>
       <use xlink:href="#MicrosoftYaHei-20" transform="translate(431.054688 0)"/>
       <use xlink:href="#MicrosoftYaHei-2192" transform="translate(460.644531 0)"/>
       <use xlink:href="#MicrosoftYaHei-20" transform="translate(560.644531 0)"/>
       <use xlink:href="#MicrosoftYaHei-4c" transform="translate(590.234375 0)"/>
       <use xlink:href="#MicrosoftYaHei-32" transform="translate(641.552734 0)"/>
       <use xlink:href="#MicrosoftYaHei-2d" transform="translate(700.195312 0)"/>
       <use xlink:href="#MicrosoftYaHei-30" transform="translate(743.457031 0)"/>
       <use xlink:href="#MicrosoftYaHei-34" transform="translate(802.099609 0)"/>
       <use xlink:href="#MicrosoftYaHei-2d" transform="translate(860.742188 0)"/>
       <use xlink:href="#MicrosoftYaHei-30" transform="translate(904.003906 0)"/>
       <use xlink:href="#MicrosoftYaHei-31" transform="translate(962.646484 0)"/>
      </g>
     </g>
    </g>
    <g id="ytick_15">
     <g id="line2d_31">
      <g>
       <use xlink:href="#m67659407ac" x="162.97" y="85.480087" style="fill: #e8ecf1; stroke: #e8ecf1; stroke-width: 0.8"/>
      </g>
     </g>
     <g id="text_24">
      <!-- L2-01-01 → L2-01-08 -->
      <g style="fill: #e8ecf1" transform="translate(64.054688 89.077274) scale(0.09 -0.09)">
       <use xlink:href="#MicrosoftYaHei-4c"/>
       <use xlink:href="#MicrosoftYaHei-32" transform="translate(51.318359 0)"/>
       <use xlink:href="#MicrosoftYaHei-2d" transform="translate(109.960938 0)"/>
       <use xlink:href="#MicrosoftYaHei-30" transform="translate(153.222656 0)"/>
       <use xlink:href="#MicrosoftYaHei-31" transform="translate(211.865234 0)"/>
       <use xlink:href="#MicrosoftYaHei-2d" transform="translate(270.507812 0)"/>
       <use xlink:href="#MicrosoftYaHei-30" transform="translate(313.769531 0)"/>
       <use xlink:href="#MicrosoftYaHei-31" transform="translate(372.412109 0)"/>
       <use xlink:href="#MicrosoftYaHei-20" transform="translate(431.054688 0)"/>
       <use xlink:href="#MicrosoftYaHei-2192" transform="translate(460.644531 0)"/>
       <use xlink:href="#MicrosoftYaHei-20" transform="translate(560.644531 0)"/>
       <use xlink:href="#MicrosoftYaHei-4c" transform="translate(590.234375 0)"/>
       <use xlink:href="#MicrosoftYaHei-32" transform="translate(641.552734 0)"/>
       <use xlink:href="#MicrosoftYaHei-2d" transform="translate(700.195312 0)"/>
       <use xlink:href="#MicrosoftYaHei-30" transform="translate(743.457031 0)"/>
       <use xlink:href="#MicrosoftYaHei-31" transform="translate(802.099609 0)"/>
       <use xlink:href="#MicrosoftYaHei-2d" transform="translate(860.742188 0)"/>
       <use xlink:href="#MicrosoftYaHei-30" transform="translate(904.003906 0)"/>
       <use xlink:href="#MicrosoftYaHei-38" transform="translate(962.646484 0)"/>
      </g>
     </g>
    </g>
   </g>
   <g id="text_25">
    <!-- 24.0% -->
    <g style="fill: #e8ecf1" transform="translate(399.813627 501.754929) scale(0.09 -0.09)">
     <defs>
      <path id="MicrosoftYaHei-2e" d="M 372 322 
Q 372 491 487 606 
Q 603 722 775 722 
Q 950 722 1065 605 
Q 1181 488 1181 322 
Q 1181 159 1065 42 
Q 950 -75 772 -75 
Q 600 -75 486 42 
Q 372 159 372 322 
z
" transform="scale(0.015625)"/>
     </defs>
     <use xlink:href="#MicrosoftYaHei-32"/>
     <use xlink:href="#MicrosoftYaHei-34" transform="translate(58.642578 0)"/>
     <use xlink:href="#MicrosoftYaHei-2e" transform="translate(117.285156 0)"/>
     <use xlink:href="#MicrosoftYaHei-30" transform="translate(141.357422 0)"/>
     <use xlink:href="#MicrosoftYaHei-25" transform="translate(200 0)"/>
    </g>
   </g>
   <g id="text_26">
    <!-- 25.0% -->
    <g style="fill: #e8ecf1" transform="translate(409.480714 472.198048) scale(0.09 -0.09)">
     <use xlink:href="#MicrosoftYaHei-32"/>
     <use xlink:href="#MicrosoftYaHei-35" transform="translate(58.642578 0)"/>
     <use xlink:href="#MicrosoftYaHei-2e" transform="translate(117.285156 0)"/>
     <use xlink:href="#MicrosoftYaHei-30" transform="translate(141.357422 0)"/>
     <use xlink:href="#MicrosoftYaHei-25" transform="translate(200 0)"/>
    </g>
   </g>
   <g id="text_27">
    <!-- 25.0% -->
    <g style="fill: #e8ecf1" transform="translate(409.480714 442.641168) scale(0.09 -0.09)">
     <use xlink:href="#MicrosoftYaHei-32"/>
     <use xlink:href="#MicrosoftYaHei-35" transform="translate(58.642578 0)"/>
     <use xlink:href="#MicrosoftYaHei-2e" transform="translate(117.285156 0)"/>
     <use xlink:href="#MicrosoftYaHei-30" transform="translate(141.357422 0)"/>
     <use xlink:href="#MicrosoftYaHei-25" transform="translate(200 0)"/>
    </g>
   </g>
   <g id="text_28">
    <!-- 25.0% -->
    <g style="fill: #e8ecf1" transform="translate(409.480714 413.084287) scale(0.09 -0.09)">
     <use xlink:href="#MicrosoftYaHei-32"/>
     <use xlink:href="#MicrosoftYaHei-35" transform="translate(58.642578 0)"/>
     <use xlink:href="#MicrosoftYaHei-2e" transform="translate(117.285156 0)"/>
     <use xlink:href="#MicrosoftYaHei-30" transform="translate(141.357422 0)"/>
     <use xlink:href="#MicrosoftYaHei-25" transform="translate(200 0)"/>
    </g>
   </g>
   <g id="text_29">
    <!-- 26.0% -->
    <g style="fill: #e8ecf1" transform="translate(419.147801 383.527407) scale(0.09 -0.09)">
     <use xlink:href="#MicrosoftYaHei-32"/>
     <use xlink:href="#MicrosoftYaHei-36" transform="translate(58.642578 0)"/>
     <use xlink:href="#MicrosoftYaHei-2e" transform="translate(117.285156 0)"/>
     <use xlink:href="#MicrosoftYaHei-30" transform="translate(141.357422 0)"/>
     <use xlink:href="#MicrosoftYaHei-25" transform="translate(200 0)"/>
    </g>
   </g>
   <g id="text_30">
    <!-- 27.0% -->
    <g style="fill: #e8ecf1" transform="translate(428.814888 353.970527) scale(0.09 -0.09)">
     <use xlink:href="#MicrosoftYaHei-32"/>
     <use xlink:href="#MicrosoftYaHei-37" transform="translate(58.642578 0)"/>
     <use xlink:href="#MicrosoftYaHei-2e" transform="translate(117.285156 0)"/>
     <use xlink:href="#MicrosoftYaHei-30" transform="translate(141.357422 0)"/>
     <use xlink:href="#MicrosoftYaHei-25" transform="translate(200 0)"/>
    </g>
   </g>
   <g id="text_31">
    <!-- 28.0% -->
    <g style="fill: #e8ecf1" transform="translate(438.481975 324.413646) scale(0.09 -0.09)">
     <use xlink:href="#MicrosoftYaHei-32"/>
     <use xlink:href="#MicrosoftYaHei-38" transform="translate(58.642578 0)"/>
     <use xlink:href="#MicrosoftYaHei-2e" transform="translate(117.285156 0)"/>
     <use xlink:href="#MicrosoftYaHei-30" transform="translate(141.357422 0)"/>
     <use xlink:href="#MicrosoftYaHei-25" transform="translate(200 0)"/>
    </g>
   </g>
   <g id="text_32">
    <!-- 30.0% -->
    <g style="fill: #e8ecf1" transform="translate(457.816148 294.856766) scale(0.09 -0.09)">
     <use xlink:href="#MicrosoftYaHei-33"/>
     <use xlink:href="#MicrosoftYaHei-30" transform="translate(58.642578 0)"/>
     <use xlink:href="#MicrosoftYaHei-2e" transform="translate(117.285156 0)"/>
     <use xlink:href="#MicrosoftYaHei-30" transform="translate(141.357422 0)"/>
     <use xlink:href="#MicrosoftYaHei-25" transform="translate(200 0)"/>
    </g>
   </g>
   <g id="text_33">
    <!-- 30.0% -->
    <g style="fill: #e8ecf1" transform="translate(457.816148 265.299885) scale(0.09 -0.09)">
     <use xlink:href="#MicrosoftYaHei-33"/>
     <use xlink:href="#MicrosoftYaHei-30" transform="translate(58.642578 0)"/>
     <use xlink:href="#MicrosoftYaHei-2e" transform="translate(117.285156 0)"/>
     <use xlink:href="#MicrosoftYaHei-30" transform="translate(141.357422 0)"/>
     <use xlink:href="#MicrosoftYaHei-25" transform="translate(200 0)"/>
    </g>
   </g>
   <g id="text_34">
    <!-- 31.0% -->
    <g style="fill: #e8ecf1" transform="translate(467.483235 235.743005) scale(0.09 -0.09)">
     <use xlink:href="#MicrosoftYaHei-33"/>
     <use xlink:href="#MicrosoftYaHei-31" transform="translate(58.642578 0)"/>
     <use xlink:href="#MicrosoftYaHei-2e" transform="translate(117.285156 0)"/>
     <use xlink:href="#MicrosoftYaHei-30" transform="translate(141.357422 0)"/>
     <use xlink:href="#MicrosoftYaHei-25" transform="translate(200 0)"/>
    </g>
   </g>
   <g id="text_35">
    <!-- 33.0% -->
    <g style="fill: #e8ecf1" transform="translate(486.817409 206.186124) scale(0.09 -0.09)">
     <use xlink:href="#MicrosoftYaHei-33"/>
     <use xlink:href="#MicrosoftYaHei-33" transform="translate(58.642578 0)"/>
     <use xlink:href="#MicrosoftYaHei-2e" transform="translate(117.285156 0)"/>
     <use xlink:href="#MicrosoftYaHei-30" transform="translate(141.357422 0)"/>
     <use xlink:href="#MicrosoftYaHei-25" transform="translate(200 0)"/>
    </g>
   </g>
   <g id="text_36">
    <!-- 35.0% -->
    <g style="fill: #e8ecf1" transform="translate(506.151583 176.629244) scale(0.09 -0.09)">
     <use xlink:href="#MicrosoftYaHei-33"/>
     <use xlink:href="#MicrosoftYaHei-35" transform="translate(58.642578 0)"/>
     <use xlink:href="#MicrosoftYaHei-2e" transform="translate(117.285156 0)"/>
     <use xlink:href="#MicrosoftYaHei-30" transform="translate(141.357422 0)"/>
     <use xlink:href="#MicrosoftYaHei-25" transform="translate(200 0)"/>
    </g>
   </g>
   <g id="text_37">
    <!-- 36.0% -->
    <g style="fill: #e8ecf1" transform="translate(515.818669 147.072363) scale(0.09 -0.09)">
     <use xlink:href="#MicrosoftYaHei-33"/>
     <use xlink:href="#MicrosoftYaHei-36" transform="translate(58.642578 0)"/>
     <use xlink:href="#MicrosoftYaHei-2e" transform="translate(117.285156 0)"/>
     <use xlink:href="#MicrosoftYaHei-30" transform="translate(141.357422 0)"/>
     <use xlink:href="#MicrosoftYaHei-25" transform="translate(200 0)"/>
    </g>
   </g>
   <g id="text_38">
    <!-- 67.0% -->
    <g style="fill: #e8ecf1" transform="translate(815.498361 117.515483) scale(0.09 -0.09)">
     <use xlink:href="#MicrosoftYaHei-36"/>
     <use xlink:href="#MicrosoftYaHei-37" transform="translate(58.642578 0)"/>
     <use xlink:href="#MicrosoftYaHei-2e" transform="translate(117.285156 0)"/>
     <use xlink:href="#MicrosoftYaHei-30" transform="translate(141.357422 0)"/>
     <use xlink:href="#MicrosoftYaHei-25" transform="translate(200 0)"/>
    </g>
   </g>
   <g id="text_39">
    <!-- 68.0% -->
    <g style="fill: #e8ecf1" transform="translate(825.165448 87.958602) scale(0.09 -0.09)">
     <use xlink:href="#MicrosoftYaHei-36"/>
     <use xlink:href="#MicrosoftYaHei-38" transform="translate(58.642578 0)"/>
     <use xlink:href="#MicrosoftYaHei-2e" transform="translate(117.285156 0)"/>
     <use xlink:href="#MicrosoftYaHei-30" transform="translate(141.357422 0)"/>
     <use xlink:href="#MicrosoftYaHei-25" transform="translate(200 0)"/>
    </g>
   </g>
   <g id="text_40">
    <!-- Top 15 高频动作子序列 -->
    <g style="fill: #e8ecf1" transform="translate(434.57625 23.126688) scale(0.14 -0.14)">
     <defs>
      <path id="MicrosoftYaHei-54" d="M 3550 4284 
L 2153 4284 
L 2153 0 
L 1525 0 
L 1525 4284 
L 134 4284 
L 134 4841 
L 3550 4841 
L 3550 4284 
z
" transform="scale(0.015625)"/>
      <path id="MicrosoftYaHei-6f" d="M 316 1691 
Q 316 2547 794 3042 
Q 1272 3538 2091 3538 
Q 2869 3538 3311 3061 
Q 3753 2584 3753 1744 
Q 3753 925 3281 422 
Q 2809 -81 2016 -81 
Q 1241 -81 778 406 
Q 316 894 316 1691 
z
M 941 1709 
Q 941 1113 1242 769 
Q 1544 425 2053 425 
Q 2578 425 2853 761 
Q 3128 1097 3128 1725 
Q 3128 2356 2853 2693 
Q 2578 3031 2053 3031 
Q 1538 3031 1239 2678 
Q 941 2325 941 1709 
z
" transform="scale(0.015625)"/>
      <path id="MicrosoftYaHei-70" d="M 1159 488 
L 1159 -1591 
L 547 -1591 
L 547 3456 
L 1159 3456 
L 1159 2859 
L 1172 2859 
Q 1578 3538 2359 3538 
Q 3022 3538 3398 3073 
Q 3775 2609 3775 1828 
Q 3775 966 3348 442 
Q 2922 -81 2200 -81 
Q 1534 -81 1172 488 
L 1159 488 
z
M 1156 1425 
Q 1156 1003 1428 714 
Q 1700 425 2109 425 
Q 2597 425 2872 800 
Q 3147 1175 3147 1838 
Q 3147 2397 2890 2714 
Q 2634 3031 2191 3031 
Q 1738 3031 1447 2709 
Q 1156 2388 1156 1884 
L 1156 1425 
z
" transform="scale(0.015625)"/>
      <path id="MicrosoftYaHei-9ad8" d="M 1194 3922 
L 5250 3922 
L 5250 2397 
L 4775 2397 
L 4775 2597 
L 1669 2597 
L 1669 2403 
L 1194 2403 
L 1194 3922 
z
M 969 -784 
L 494 -784 
L 494 2147 
L 5956 2147 
L 5956 22 
Q 5956 -747 5231 -747 
Q 4825 -747 4319 -734 
Q 4281 -522 4219 -241 
Q 4794 -284 5100 -284 
Q 5481 -284 5481 97 
L 5481 1747 
L 969 1747 
L 969 -784 
z
M 1813 1334 
L 4638 1334 
L 4638 28 
L 2263 28 
L 2263 -241 
L 1813 -241 
L 1813 1334 
z
M 125 4747 
L 2988 4747 
Q 2850 5013 2725 5216 
L 3194 5403 
Q 3372 5094 3541 4747 
L 6275 4747 
L 6275 4334 
L 125 4334 
L 125 4747 
z
M 4775 3534 
L 1669 3534 
L 1669 2984 
L 4775 2984 
L 4775 3534 
z
M 4188 416 
L 4188 947 
L 2263 947 
L 2263 416 
L 4188 416 
z
" transform="scale(0.015625)"/>
      <path id="MicrosoftYaHei-9891" d="M 3200 3716 
L 4113 3716 
L 4269 4522 
L 2938 4522 
L 2938 4947 
L 6294 4947 
L 6294 4522 
L 4788 4522 
L 4600 3716 
L 6019 3716 
L 6019 478 
L 5550 478 
L 5550 3291 
L 3669 3291 
L 3669 478 
L 3200 478 
L 3200 3716 
z
M 94 3034 
L 525 3034 
L 525 4691 
L 963 4691 
L 963 3034 
L 1600 3034 
L 1600 5272 
L 2050 5272 
L 2050 4291 
L 2925 4291 
L 2925 3878 
L 2050 3878 
L 2050 3034 
L 3006 3034 
L 3006 2609 
L 94 2609 
L 94 3034 
z
M 4356 2884 
L 4825 2884 
L 4825 1934 
Q 4825 1216 4650 716 
Q 5619 128 6375 -403 
L 6075 -841 
Q 5306 -234 4450 303 
Q 4413 241 4369 184 
Q 3913 -447 2763 -884 
Q 2625 -691 2444 -478 
Q 3525 -72 3944 447 
Q 4356 947 4356 1966 
L 4356 2884 
z
M 1550 2459 
L 2000 2459 
L 2000 853 
Q 2394 1309 2663 1866 
L 3100 1609 
Q 2206 -47 394 -909 
Q 275 -741 69 -503 
Q 1125 -47 1819 659 
L 1550 659 
L 1550 2459 
z
M 38 578 
Q 381 1191 669 2084 
L 1113 1947 
Q 806 1028 456 366 
Q 269 472 38 578 
z
" transform="scale(0.015625)"/>
      <path id="MicrosoftYaHei-52a8" d="M 2975 4022 
L 3906 4022 
Q 3916 4650 3913 5309 
L 4425 5309 
Q 4422 4656 4409 4022 
L 6094 4022 
Q 6050 1659 5969 216 
Q 5900 -666 5150 -678 
Q 4763 -678 4306 -659 
Q 4263 -397 4206 -109 
Q 4638 -166 4994 -172 
Q 5456 -172 5475 347 
Q 5569 1897 5588 3547 
L 4400 3547 
Q 4394 3278 4388 3016 
Q 4356 553 2900 -872 
Q 2725 -659 2525 -447 
Q 3831 716 3888 3028 
Q 3894 3284 3900 3547 
L 2975 3547 
L 2975 4022 
z
M 2338 1866 
Q 2731 1016 3063 178 
Q 2788 59 2594 -28 
Q 2550 91 2506 209 
Q 1316 97 338 -16 
L 119 491 
Q 394 647 563 997 
Q 869 1613 1200 2559 
L 144 2559 
L 144 3022 
L 3163 3022 
L 3163 2559 
L 1725 2559 
Q 1191 1228 800 491 
Q 1519 544 2347 631 
Q 2138 1163 1906 1672 
L 2338 1866 
z
M 406 4778 
L 2913 4778 
L 2913 4316 
L 406 4316 
L 406 4778 
z
" transform="scale(0.015625)"/>
      <path id="MicrosoftYaHei-4f5c" d="M 1806 2784 
Q 2638 3922 3031 5322 
L 3544 5228 
Q 3397 4747 3213 4297 
L 6294 4297 
L 6294 3859 
L 4019 3859 
L 4019 2766 
L 6044 2766 
L 6044 2328 
L 4019 2328 
L 4019 1191 
L 6125 1191 
L 6125 753 
L 4019 753 
L 4019 -822 
L 3531 -822 
L 3531 3859 
L 3022 3859 
Q 2669 3097 2200 2428 
Q 2025 2597 1806 2784 
z
M 69 2209 
Q 950 3516 1463 5303 
L 1975 5153 
Q 1734 4416 1463 3769 
L 1463 -822 
L 975 -822 
L 975 2750 
Q 659 2159 306 1672 
Q 213 1909 69 2209 
z
" transform="scale(0.015625)"/>
      <path id="MicrosoftYaHei-5b50" d="M 125 2497 
L 3031 2497 
L 3031 3184 
L 4825 4491 
L 781 4491 
L 781 4959 
L 5656 4959 
L 5656 4472 
L 3563 2941 
L 3563 2497 
L 6300 2497 
L 6300 2028 
L 3563 2028 
L 3563 59 
Q 3563 -778 2688 -778 
Q 2400 -778 1700 -766 
Q 1675 -516 1625 -197 
Q 2081 -253 2588 -259 
Q 3031 -259 3031 191 
L 3031 2028 
L 125 2028 
L 125 2497 
z
" transform="scale(0.015625)"/>
      <path id="MicrosoftYaHei-5e8f" d="M 1438 1966 
L 3634 1966 
Q 3053 2394 2525 2722 
L 2825 3041 
Q 3294 2756 3719 2478 
L 4850 3147 
L 1806 3147 
L 1806 3597 
L 5756 3597 
L 5756 3141 
L 4141 2191 
Q 4219 2138 4294 2084 
L 4128 1966 
L 6181 1966 
L 6181 1503 
L 5638 384 
Q 5450 484 5175 609 
L 5619 1509 
L 4119 1509 
L 4119 22 
Q 4119 -734 3400 -734 
Q 3019 -734 2463 -722 
Q 2438 -509 2388 -184 
Q 2881 -253 3250 -253 
Q 3606 -253 3606 103 
L 3606 1509 
L 1438 1509 
L 1438 1966 
z
M 2981 5147 
L 3431 5391 
Q 3675 5078 3881 4747 
L 3584 4572 
L 6244 4572 
L 6244 4116 
L 1263 4116 
L 1263 2416 
Q 1263 191 406 -872 
Q 256 -666 50 -447 
Q 738 353 738 2291 
L 738 4572 
L 3369 4572 
Q 3178 4884 2981 5147 
z
" transform="scale(0.015625)"/>
      <path id="MicrosoftYaHei-5217" d="M 1163 1953 
L 1469 2303 
Q 1944 1913 2334 1538 
Q 2753 2263 2925 3109 
L 1519 3109 
Q 1028 1984 313 1084 
Q 175 1403 63 1584 
Q 1006 2853 1516 4553 
L 269 4553 
L 269 5003 
L 3775 5003 
L 3775 4553 
L 2031 4553 
Q 1884 4038 1703 3559 
L 3438 3559 
L 3438 3103 
Q 2925 541 744 -853 
Q 581 -666 356 -472 
Q 1425 219 2069 1125 
Q 1713 1475 1163 1953 
z
M 5419 5228 
L 5919 5228 
L 5919 66 
Q 5919 -728 5200 -734 
Q 4856 -741 4181 -728 
Q 4150 -441 4081 -166 
Q 4725 -222 5031 -222 
Q 5419 -222 5419 197 
L 5419 5228 
z
M 4519 709 
L 4038 709 
L 4038 4534 
L 4519 4534 
L 4519 709 
z
" transform="scale(0.015625)"/>
     </defs>
     <use xlink:href="#MicrosoftYaHei-54"/>
     <use xlink:href="#MicrosoftYaHei-6f" transform="translate(46.199219 0)"/>
     <use xlink:href="#MicrosoftYaHei-70" transform="translate(109.773438 0)"/>
     <use xlink:href="#MicrosoftYaHei-20" transform="translate(173.640625 0)"/>
     <use xlink:href="#MicrosoftYaHei-31" transform="translate(203.230469 0)"/>
     <use xlink:href="#MicrosoftYaHei-35" transform="translate(261.873047 0)"/>
     <use xlink:href="#MicrosoftYaHei-20" transform="translate(320.515625 0)"/>
     <use xlink:href="#MicrosoftYaHei-9ad8" transform="translate(350.105469 0)"/>
     <use xlink:href="#MicrosoftYaHei-9891" transform="translate(450.105469 0)"/>
     <use xlink:href="#MicrosoftYaHei-52a8" transform="translate(550.105469 0)"/>
     <use xlink:href="#MicrosoftYaHei-4f5c" transform="translate(650.105469 0)"/>
     <use xlink:href="#MicrosoftYaHei-5b50" transform="translate(750.105469 0)"/>
     <use xlink:href="#MicrosoftYaHei-5e8f" transform="translate(850.105469 0)"/>
     <use xlink:href="#MicrosoftYaHei-5217" transform="translate(950.105469 0)"/>
    </g>
    <!-- 工业场景的"动作DNA" -->
    <g style="fill: #e8ecf1" transform="translate(437.038281 40.0365) scale(0.14 -0.14)">
     <defs>
      <path id="MicrosoftYaHei-5de5" d="M 181 97 
L 2919 97 
L 2919 4266 
L 538 4266 
L 538 4766 
L 5863 4766 
L 5863 4266 
L 3469 4266 
L 3469 97 
L 6213 97 
L 6213 -391 
L 181 -391 
L 181 97 
z
" transform="scale(0.015625)"/>
      <path id="MicrosoftYaHei-4e1a" d="M 119 47 
L 2125 47 
L 2125 5209 
L 2650 5209 
L 2650 47 
L 3744 47 
L 3744 5209 
L 4269 5209 
L 4269 47 
L 6294 47 
L 6294 -416 
L 119 -416 
L 119 47 
z
M 844 3984 
Q 1356 2778 1838 1422 
L 1325 1191 
Q 906 2509 388 3784 
L 844 3984 
z
M 4494 1366 
Q 5119 2691 5544 3928 
L 6050 3728 
Q 5469 2234 4944 1159 
L 4494 1366 
z
" transform="scale(0.015625)"/>
      <path id="MicrosoftYaHei-573a" d="M 4800 4491 
L 2363 4491 
L 2363 4941 
L 5688 4941 
L 5688 4484 
L 3225 2928 
L 6063 2928 
Q 5988 1197 5919 253 
Q 5838 -703 5038 -703 
Q 4763 -703 4194 -684 
Q 4150 -372 4088 -141 
Q 4519 -209 4962 -209 
Q 5406 -209 5450 322 
Q 5513 1103 5575 2478 
L 4906 2478 
Q 4628 375 2963 -853 
Q 2788 -634 2613 -472 
Q 4163 600 4441 2478 
L 3641 2478 
Q 3281 913 1863 -103 
Q 1713 78 1538 259 
Q 2831 1144 3175 2478 
L 2431 2478 
L 2431 2953 
L 4800 4491 
z
M 94 703 
Q 547 888 1006 1088 
L 1006 3247 
L 169 3247 
L 169 3697 
L 1006 3697 
L 1006 5259 
L 1469 5259 
L 1469 3697 
L 2231 3697 
L 2231 3247 
L 1469 3247 
L 1469 1294 
Q 1819 1453 2175 1622 
Q 2188 1359 2231 1153 
Q 1319 741 288 222 
L 94 703 
z
" transform="scale(0.015625)"/>
      <path id="MicrosoftYaHei-666f" d="M 900 5084 
L 5500 5084 
L 5500 2984 
L 5050 2984 
L 5050 3209 
L 1350 3209 
L 1350 2984 
L 900 2984 
L 900 5084 
z
M 1013 2003 
L 5438 2003 
L 5438 566 
L 4988 566 
L 4988 766 
L 3481 766 
L 3481 -103 
Q 3488 -766 2825 -766 
Q 2406 -766 2131 -759 
Q 2119 -666 2038 -266 
Q 2431 -303 2713 -303 
Q 3013 -303 3019 9 
L 3019 766 
L 1463 766 
L 1463 566 
L 1013 566 
L 1013 2003 
z
M 338 2759 
L 2950 2759 
Q 2878 2888 2800 3022 
L 3219 3197 
Q 3350 2969 3459 2759 
L 6075 2759 
L 6075 2372 
L 338 2372 
L 338 2759 
z
M 4988 1628 
L 1463 1628 
L 1463 1141 
L 4988 1141 
L 4988 1628 
z
M 1350 3584 
L 5050 3584 
L 5050 3966 
L 1350 3966 
L 1350 3584 
z
M 5050 4709 
L 1350 4709 
L 1350 4328 
L 5050 4328 
L 5050 4709 
z
M 4000 103 
L 4213 497 
Q 5181 134 6113 -247 
L 5881 -678 
Q 5025 -278 4000 103 
z
M 2175 503 
L 2438 122 
Q 1531 -322 588 -741 
Q 494 -559 338 -341 
Q 1406 97 2175 503 
z
" transform="scale(0.015625)"/>
      <path id="MicrosoftYaHei-7684" d="M 356 4284 
L 988 4284 
Q 1219 4853 1369 5322 
L 1894 5172 
Q 1697 4694 1513 4284 
L 2763 4284 
L 2763 -691 
L 2263 -691 
L 2263 -203 
L 856 -203 
L 856 -734 
L 356 -734 
L 356 4284 
z
M 2856 3003 
Q 3444 3934 3850 5322 
L 4375 5191 
Q 4216 4719 4050 4303 
L 6063 4303 
Q 5988 1091 5938 259 
Q 5894 -722 4906 -722 
Q 4338 -722 3750 -684 
Q 3713 -372 3650 -128 
L 3669 -128 
Q 4294 -216 4813 -216 
Q 5381 -216 5425 384 
Q 5494 1316 5525 3834 
L 3850 3834 
Q 3578 3231 3288 2772 
Q 3119 2891 2856 3003 
z
M 856 266 
L 2263 266 
L 2263 1847 
L 856 1847 
L 856 266 
z
M 2263 3816 
L 856 3816 
L 856 2297 
L 2263 2297 
L 2263 3816 
z
M 3406 2578 
L 3788 2859 
Q 4481 2041 4894 1441 
L 4431 1116 
Q 3988 1841 3406 2578 
z
" transform="scale(0.015625)"/>
      <path id="MicrosoftYaHei-22" d="M 1284 4847 
L 1181 3341 
L 763 3341 
L 663 4847 
L 1284 4847 
z
M 2128 4847 
L 2028 3341 
L 1606 3341 
L 1503 4847 
L 2128 4847 
z
" transform="scale(0.015625)"/>
      <path id="MicrosoftYaHei-44" d="M 625 0 
L 625 4841 
L 2006 4841 
Q 3106 4841 3836 4200 
Q 4566 3559 4566 2481 
Q 4566 1356 3836 678 
Q 3106 0 1956 0 
L 625 0 
z
M 1250 4284 
L 1250 553 
L 1953 553 
Q 2875 553 3392 1056 
Q 3909 1559 3909 2466 
Q 3909 3372 3378 3828 
Q 2847 4284 1981 4284 
L 1250 4284 
z
" transform="scale(0.015625)"/>
      <path id="MicrosoftYaHei-4e" d="M 4578 0 
L 3838 0 
L 1403 3766 
Q 1300 3925 1238 4081 
L 1219 4081 
Q 1244 3919 1244 3403 
L 1244 0 
L 625 0 
L 625 4841 
L 1409 4841 
L 3778 1141 
Q 3947 878 3978 806 
L 3991 806 
Q 3959 1013 3959 1513 
L 3959 4841 
L 4578 4841 
L 4578 0 
z
" transform="scale(0.015625)"/>
      <path id="MicrosoftYaHei-41" d="M 4428 0 
L 3738 0 
L 3244 1325 
L 1228 1325 
L 763 0 
L 72 0 
L 1916 4841 
L 2584 4841 
L 4428 0 
z
M 3050 1872 
L 2319 3884 
Q 2284 3981 2244 4222 
L 2228 4222 
Q 2194 4003 2150 3884 
L 1425 1872 
L 3050 1872 
z
" transform="scale(0.015625)"/>
     </defs>
     <use xlink:href="#MicrosoftYaHei-5de5"/>
     <use xlink:href="#MicrosoftYaHei-4e1a" transform="translate(100 0)"/>
     <use xlink:href="#MicrosoftYaHei-573a" transform="translate(200 0)"/>
     <use xlink:href="#MicrosoftYaHei-666f" transform="translate(300 0)"/>
     <use xlink:href="#MicrosoftYaHei-7684" transform="translate(400 0)"/>
     <use xlink:href="#MicrosoftYaHei-22" transform="translate(500 0)"/>
     <use xlink:href="#MicrosoftYaHei-52a8" transform="translate(543.554688 0)"/>
     <use xlink:href="#MicrosoftYaHei-4f5c" transform="translate(643.554688 0)"/>
     <use xlink:href="#MicrosoftYaHei-44" transform="translate(743.554688 0)"/>
     <use xlink:href="#MicrosoftYaHei-4e" transform="translate(819.726562 0)"/>
     <use xlink:href="#MicrosoftYaHei-41" transform="translate(901.025391 0)"/>
     <use xlink:href="#MicrosoftYaHei-22" transform="translate(971.386719 0)"/>
    </g>
   </g>
  </g>
 </g>
 <defs>
  <clipPath id="p7de7209c6b">
   <rect x="162.97" y="55.0365" width="690.23" height="474.6835"/>
  </clipPath>
 </defs>
</svg>
